<svg width="200" height="200" viewBox="0 0 200 200" fill="none" xmlns="http://www.w3.org/2000/svg">
  <rect width="200" height="200" rx="20" fill="#FEF3C7"/>
  <rect x="70" y="60" width="60" height="80" rx="5" fill="#F59E0B" opacity="0.7"/>
  <rect x="77" y="70" width="45" height="5" rx="2.5" fill="white"/>
  <rect x="77" y="85" width="35" height="5" rx="2.5" fill="white"/>
  <rect x="77" y="100" width="40" height="5" rx="2.5" fill="white"/>
  <rect x="77" y="115" width="30" height="5" rx="2.5" fill="white"/>
  <path d="M135 75C141.627 75 147 80.3726 147 87C147 93.6274 141.627 99 135 99C128.373 99 123 93.6274 123 87C123 80.3726 128.373 75 135 75Z" fill="#F59E0B"/>
  <path d="M136.5 132L123 99H147L136.5 132Z" fill="#F59E0B"/>
  <circle cx="60" cy="149" r="12" fill="#F59E0B"/>
  <circle cx="87" cy="149" r="12" fill="#F59E0B"/>
  <circle cx="114" cy="149" r="12" fill="#F59E0B"/>
</svg> 