<svg width="200" height="200" viewBox="0 0 200 200" fill="none" xmlns="http://www.w3.org/2000/svg">
  <rect width="200" height="200" rx="20" fill="#DBEAFE"/>
  <circle cx="100" cy="100" r="60" fill="#3B82F6" opacity="0.2"/>
  <circle cx="100" cy="100" r="10" fill="#3B82F6"/>
  <circle cx="70" cy="70" r="8" fill="#3B82F6"/>
  <circle cx="130" cy="70" r="8" fill="#3B82F6"/>
  <circle cx="70" cy="130" r="8" fill="#3B82F6"/>
  <circle cx="130" cy="130" r="8" fill="#3B82F6"/>
  <circle cx="145" cy="100" r="8" fill="#3B82F6"/>
  <circle cx="55" cy="100" r="8" fill="#3B82F6"/>
  <circle cx="100" cy="55" r="8" fill="#3B82F6"/>
  <circle cx="100" cy="145" r="8" fill="#3B82F6"/>
  <line x1="100" y1="100" x2="70" y2="70" stroke="#3B82F6" stroke-width="2"/>
  <line x1="100" y1="100" x2="130" y2="70" stroke="#3B82F6" stroke-width="2"/>
  <line x1="100" y1="100" x2="130" y2="130" stroke="#3B82F6" stroke-width="2"/>
  <line x1="100" y1="100" x2="70" y2="130" stroke="#3B82F6" stroke-width="2"/>
  <line x1="100" y1="100" x2="145" y2="100" stroke="#3B82F6" stroke-width="2"/>
  <line x1="100" y1="100" x2="55" y2="100" stroke="#3B82F6" stroke-width="2"/>
  <line x1="100" y1="100" x2="100" y2="55" stroke="#3B82F6" stroke-width="2"/>
  <line x1="100" y1="100" x2="100" y2="145" stroke="#3B82F6" stroke-width="2"/>
</svg> 